<svg width="20" height="20" viewBox="0 0 20 20" fill="none" xmlns="http://www.w3.org/2000/svg">
<path d="M13.4916 1.66675H6.50829C3.47496 1.66675 1.66663 3.47508 1.66663 6.50841V13.4834C1.66663 16.5251 3.47496 18.3334 6.50829 18.3334H13.4833C16.5166 18.3334 18.325 16.5251 18.325 13.4917V6.50841C18.3333 3.47508 16.525 1.66675 13.4916 1.66675ZM9.99996 13.2334C8.21663 13.2334 6.76663 11.7834 6.76663 10.0001C6.76663 8.21675 8.21663 6.76675 9.99996 6.76675C11.7833 6.76675 13.2333 8.21675 13.2333 10.0001C13.2333 11.7834 11.7833 13.2334 9.99996 13.2334ZM14.9333 5.73341C14.8916 5.83341 14.8333 5.92508 14.7583 6.00841C14.675 6.08341 14.5833 6.14175 14.4833 6.18341C14.3833 6.22508 14.275 6.25008 14.1666 6.25008C13.9416 6.25008 13.7333 6.16675 13.575 6.00841C13.5 5.92508 13.4416 5.83341 13.4 5.73341C13.3583 5.63341 13.3333 5.52508 13.3333 5.41675C13.3333 5.30841 13.3583 5.20008 13.4 5.10008C13.4416 4.99175 13.5 4.90841 13.575 4.82508C13.7666 4.63341 14.0583 4.54175 14.325 4.60008C14.3833 4.60841 14.4333 4.62508 14.4833 4.65008C14.5333 4.66675 14.5833 4.69175 14.6333 4.72508C14.675 4.75008 14.7166 4.79175 14.7583 4.82508C14.8333 4.90841 14.8916 4.99175 14.9333 5.10008C14.975 5.20008 15 5.30841 15 5.41675C15 5.52508 14.975 5.63341 14.9333 5.73341Z" fill="#101727"/>
</svg>
