<svg width="20" height="20" viewBox="0 0 20 20" fill="none" xmlns="http://www.w3.org/2000/svg">
<path d="M18.3195 8.67734L7.06328 1.79218C6.82722 1.64827 6.55721 1.56957 6.2808 1.56412C6.00439 1.55866 5.73148 1.62664 5.48992 1.76112C5.24837 1.8956 5.04682 2.09176 4.90585 2.32958C4.76488 2.56741 4.68953 2.83838 4.6875 3.11484V16.8851C4.68953 17.1616 4.76488 17.4326 4.90585 17.6704C5.04682 17.9082 5.24837 18.1044 5.48992 18.2389C5.73148 18.3733 6.00439 18.4413 6.2808 18.4359C6.55721 18.4304 6.82722 18.3517 7.06328 18.2078L18.3195 11.3226C18.5465 11.1845 18.7341 10.9902 18.8643 10.7586C18.9945 10.527 19.0628 10.2657 19.0628 9.99999C19.0628 9.73428 18.9945 9.47303 18.8643 9.24139C18.7341 9.00974 18.5465 8.8155 18.3195 8.67734ZM6.5625 16.3164V3.68359L16.8875 9.99999L6.5625 16.3164Z" fill="url(#paint0_linear_2_353)"/>
<defs>
<linearGradient id="paint0_linear_2_353" x1="0.104758" y1="10.9697" x2="19.0721" y2="10.7296" gradientUnits="userSpaceOnUse">
<stop stop-color="#4F39F6"/>
<stop offset="1" stop-color="#9514FA"/>
</linearGradient>
</defs>
</svg>
